# xmcd CD database file
#
# Track frame offsets:
#	150
#	18105
#	37302
#	48425
#	63265
#	78090
#	91655
#	107100
#	123350
#	141535
#	158742
#
# Disc length: 2276 seconds
#
# Revision: 0
# Processed by: cddbd v1.4PL0 Copyright (c) Steve Scherf et al.
# Submitted via: CDex 1.50beta10
#
DISCID=8808e20b
DTITLE=Lonesome Sundown - Been Gone Too Long
DYEAR=1991
DGENRE=Blues
TTITLE0=They Call Me Sundown
TTITLE1=One More Night
TTITLE2=Louisiana River Man
TTITLE3=Dealin' From The Bottom Of The Deck
TTITLE4=Midnight Blues Again
TTITLE5=Just Got To Know
TTITLE6=Black Cat Bone
TTITLE7=I Betcha
TTITLE8=You Don't Miss Your Water
TTITLE9=If You Ain't Been To Houston
TTITLE10=This Is The Blues
EXTD=YEAR: 1991
EXTT0=
EXTT1=
EXTT2=
EXTT3=
EXTT4=
EXTT5=
EXTT6=
EXTT7=
EXTT8=
EXTT9=
EXTT10=
PLAYORDER=
